<svg width="17" height="17" viewBox="0 0 17 17" xmlns="http://www.w3.org/2000/svg">
<path d="M8.5 0C3.81825 0 0 3.81825 0 8.5C0 13.1817 3.81825 17 8.5 17C13.1817 17 17 13.1817 17 8.5C17 3.81825 13.1817 0 8.5 0ZM8.5 16.3704C4.41191 16.3704 0.62963 12.5881 0.62963 8.5C0.62963 4.41191 4.41191 0.62963 8.5 0.62963C12.5881 0.62963 16.3704 4.41191 16.3704 8.5C16.3704 12.5881 12.5881 16.3704 8.5 16.3704Z"/>
<path d="M8.47578 5.69092C8.82352 5.69092 9.10541 5.40902 9.10541 5.06129C9.10541 4.71355 8.82352 4.43166 8.47578 4.43166C8.12805 4.43166 7.84615 4.71355 7.84615 5.06129C7.84615 5.40902 8.12805 5.69092 8.47578 5.69092Z"/>
<path d="M8.80271 6.63536C8.80271 6.45481 8.65634 6.30844 8.47578 6.30844C8.29523 6.30844 8.14886 6.45481 8.14886 6.63536V12.302C8.14886 12.4826 8.29523 12.629 8.47578 12.629C8.65634 12.629 8.80271 12.4826 8.80271 12.302V6.63536Z"/>
</svg>
