<svg width="17" height="16" viewBox="0 0 17 16" xmlns="http://www.w3.org/2000/svg">
<path d="M16.4188 15.5H0.581197C0.528329 15.5 0.5 15.4601 0.5 15.4286V11.9001C0.5 11.8831 0.509556 11.8622 0.527104 11.8496C7.46185 6.87684 13.9244 9.67547 16.487 11.8319L16.8089 11.4493L16.487 11.8319C16.4905 11.8349 16.4932 11.8383 16.4954 11.8432C16.4977 11.8483 16.5 11.8565 16.5 11.8677V15.4286C16.5 15.4601 16.4717 15.5 16.4188 15.5ZM11.7051 3.71429C11.7051 5.48153 10.2456 6.92857 8.42735 6.92857C6.60906 6.92857 5.14957 5.48153 5.14957 3.71429C5.14957 1.94704 6.60906 0.5 8.42735 0.5C10.2456 0.5 11.7051 1.94704 11.7051 3.71429Z" stroke="#FDFDFD"/>
</svg>
