<svg width="18" height="17" viewBox="0 0 18 17" xmlns="http://www.w3.org/2000/svg">
<path d="M0.944336 9.4375L8.97211 1L16.9999 9.4375M2.72829 7.5625V15.0625C2.72829 15.3111 2.82226 15.5496 2.98954 15.7254C3.15682 15.9012 3.38369 16 3.62026 16H6.29619C6.53275 16 6.75963 15.9012 6.92691 15.7254C7.09419 15.5496 7.18816 15.3111 7.18816 15.0625V11.3125C7.18816 11.0639 7.28214 10.8254 7.44942 10.6496C7.61669 10.4738 7.84357 10.375 8.08014 10.375H9.86409C10.1007 10.375 10.3275 10.4738 10.4948 10.6496C10.6621 10.8254 10.7561 11.0639 10.7561 11.3125V15.0625C10.7561 15.3111 10.85 15.5496 11.0173 15.7254C11.1846 15.9012 11.4115 16 11.648 16H14.324C14.5605 16 14.7874 15.9012 14.9547 15.7254C15.122 15.5496 15.2159 15.3111 15.2159 15.0625V7.5625"  stroke-width="1.14286" stroke-linecap="round" stroke-linejoin="round"/>
</svg>
